<?xml version="1.0" encoding="UTF-8"?>
<!DOCTYPE svg PUBLIC "-//W3C//DTD SVG 1.1//EN" "http://www.w3.org/Graphics/SVG/1.1/DTD/svg11.dtd">
<!-- Creator: CorelDRAW (Versión de evaluación) -->
<svg xmlns="http://www.w3.org/2000/svg" xml:space="preserve" width="135.456mm" height="77.7893mm" version="1.1" style="shape-rendering:geometricPrecision; text-rendering:geometricPrecision; image-rendering:optimizeQuality; fill-rule:evenodd; clip-rule:evenodd"
viewBox="0 0 14999.5 8613.84"
 xmlns:xlink="http://www.w3.org/1999/xlink"
 xmlns:xodm="http://www.corel.com/coreldraw/odm/2003">
 <defs>
  <style type="text/css">
   <![CDATA[
    .fil0 {fill:white}
   ]]>
  </style>
 </defs>
 <g id="Capa_x0020_1">
  <metadata id="CorelCorpID_0Corel-Layer"/>
  <g id="_277868760">
   <path class="fil0" d="M6944.69 1729.71c225.06,425.36 746.42,1257.7 1021.49,1715.09l2565.59 4275.83c172.95,289 360.54,579.18 517.77,876.33l3949.95 0 -1918.59 -3218.94c-220.4,-369.47 -422.2,-714.27 -648.16,-1081.55l-1930.22 -3207.3c-111.08,-183.99 -206.93,-345.09 -319.58,-532.38 -65.69,-109.24 -301.34,-472.54 -320.97,-556.79l-1456.91 866.58c-113.53,68.28 -1369.39,838.84 -1460.37,863.13z"/>
   <path class="fil0" d="M9681.26 8596.96c-21.6,-80.92 -143.6,-260.74 -195.37,-346.8l-1032.66 -1729.71c-144.74,-240.69 -269.62,-459.55 -419.19,-690.92 -508.25,-786.23 -1169.62,-2029.03 -1657.32,-2757.34 -128.77,30 -1305.7,765.85 -1447.17,850.52l-1065.21 638.7c-91.02,54.29 -294.43,192.08 -379.09,214.69 9.83,118.15 78.37,195.63 130.52,282.56l1135.93 1884.61c215.1,359.42 428.71,716.2 648.85,1080.86 200.69,332.46 293.13,457.67 334.03,577.44 1.4,4.1 2.74,8.19 4.01,12.28l195.36 -7.8 385.34 -4.23c86.4,-11.95 203.78,-1.76 278.81,-8.44 23.3,-2.07 43.53,-0.59 60.93,3.59l3022.23 0z"/>
   <path class="fil0" d="M-0 7848.27c35.61,152.86 377.28,595.06 413.07,748.69l3949.95 0c-21.6,-92.72 -119.57,-229.13 -172.57,-317.96l-1298.99 -2160.44 -2518.86 1508.55c-130.31,78.37 -245.99,154.17 -372.61,221.17z"/>
  </g>
 </g>
</svg>
